<svg width="50" height="50" viewBox="0 0 50 50" fill="none" xmlns="http://www.w3.org/2000/svg">
<circle cx="25" cy="25" r="25" fill="#522E99"/>
<g clip-path="url(#clip0_106_180)">
<path d="M21.6667 32.5H17.8408C17.7505 32.4998 17.6639 32.4638 17.6001 32.3999C17.5362 32.3361 17.5002 32.2495 17.5 32.1592V17.8408C17.5002 17.7505 17.5362 17.6639 17.6001 17.6001C17.6639 17.5362 17.7505 17.5002 17.8408 17.5H21.6667C21.9982 17.5 22.3161 17.3683 22.5505 17.1339C22.785 16.8995 22.9167 16.5815 22.9167 16.25C22.9167 15.9185 22.785 15.6005 22.5505 15.3661C22.3161 15.1317 21.9982 15 21.6667 15H17.8408C17.0877 15.0009 16.3656 15.3005 15.833 15.833C15.3005 16.3656 15.0009 17.0877 15 17.8408V32.1592C15.0009 32.9123 15.3005 33.6344 15.833 34.167C16.3656 34.6995 17.0877 34.9991 17.8408 35H21.6667C21.9982 35 22.3161 34.8683 22.5505 34.6339C22.785 34.3995 22.9167 34.0815 22.9167 33.75C22.9167 33.4185 22.785 33.1005 22.5505 32.8661C22.3161 32.6317 21.9982 32.5 21.6667 32.5Z" fill="white"/>
<path d="M33.9017 22.3477L30.6667 19.1152C30.5506 18.9992 30.4128 18.9071 30.2611 18.8443C30.1094 18.7815 29.9469 18.7492 29.7827 18.7493C29.6185 18.7493 29.456 18.7817 29.3043 18.8445C29.1527 18.9074 29.0149 18.9995 28.8988 19.1156C28.7828 19.2317 28.6907 19.3696 28.6279 19.5213C28.5651 19.6729 28.5329 19.8355 28.5329 19.9997C28.533 20.3312 28.6648 20.6492 28.8992 20.8835L31.7426 23.726L20.4167 23.7494C20.0852 23.7494 19.7673 23.8811 19.5329 24.1155C19.2984 24.3499 19.1667 24.6679 19.1667 24.9994C19.1667 25.3309 19.2984 25.6488 19.5329 25.8833C19.7673 26.1177 20.0852 26.2494 20.4167 26.2494L31.7884 26.2285L28.8992 29.1177C28.6786 29.3548 28.5585 29.6682 28.5644 29.9921C28.5702 30.3159 28.7016 30.6248 28.9307 30.8537C29.1598 31.0826 29.4689 31.2137 29.7927 31.2192C30.1165 31.2248 30.4299 31.1045 30.6667 30.8835L33.8992 27.651C34.2475 27.3028 34.5237 26.8894 34.7122 26.4344C34.9006 25.9795 34.9976 25.4918 34.9976 24.9994C34.9976 24.5069 34.9006 24.0193 34.7122 23.5643C34.5237 23.1093 34.2475 22.6959 33.8992 22.3477H33.9017Z" fill="white"/>
</g>
<defs>
<clipPath id="clip0_106_180">
<rect width="20" height="20" fill="white" transform="translate(15 15)"/>
</clipPath>
</defs>
</svg>
