<svg width="30" height="30" viewBox="0 0 30 30" fill="none" xmlns="http://www.w3.org/2000/svg">
<g clip-path="url(#clip0_111_91)">
<path d="M14.9999 0C6.71586 0 0 6.71585 0 15.0001C0 23.2847 6.71586 30 14.9999 30C23.2849 30 30 23.2847 30 15.0001C30 6.71638 23.2849 0.000716491 14.9997 0.000716491L14.9999 0ZM21.8788 21.6344C21.6101 22.0751 21.0333 22.2148 20.5927 21.9443C17.0709 19.7931 12.6373 19.3058 7.41604 20.4988C6.91289 20.6134 6.41136 20.2982 6.29673 19.7948C6.18155 19.2915 6.49555 18.79 6.99995 18.6753C12.7138 17.3699 17.615 17.932 21.5689 20.3483C22.0095 20.6188 22.1492 21.1938 21.8788 21.6344ZM23.7147 17.5501C23.3762 18.1003 22.6561 18.2741 22.1063 17.9356C18.0743 15.4572 11.9282 14.7395 7.15918 16.1871C6.54069 16.374 5.88744 16.0254 5.69973 15.408C5.51344 14.7894 5.86219 14.1374 6.47961 13.9494C11.9271 12.2964 18.6994 13.0971 23.3296 15.9425C23.8795 16.281 24.0533 17.0011 23.7147 17.5503V17.5501ZM23.8724 13.297C19.038 10.4255 11.0618 10.1614 6.44611 11.5624C5.70492 11.7872 4.9211 11.3687 4.69648 10.6275C4.47187 9.88596 4.88993 9.10266 5.63166 8.87732C10.9302 7.2688 19.7383 7.57958 25.3042 10.8839C25.9723 11.2795 26.1909 12.1406 25.795 12.8064C25.401 13.4731 24.5376 13.6929 23.8731 13.297H23.8724Z" fill="white"/>
</g>
<defs>
<clipPath id="clip0_111_91">
<rect width="30" height="30" fill="white"/>
</clipPath>
</defs>
</svg>
